<svg xmlns="http://www.w3.org/2000/svg" width="122.823" height="202.765" viewBox="0 0 122.823 202.765">
  <g id="ask_question_img" transform="translate(-469.648 -470.75)">
    <g id="Group_95" data-name="Group 95" transform="translate(471 472)">
      <g id="Character_4" data-name="Character 4" transform="translate(0 34.911)">
        <g id="Group_92" data-name="Group 92">
          <path id="Path_222" data-name="Path 222" d="M1054.652,192.975a7.736,7.736,0,0,1-2.972,1.818,6.565,6.565,0,0,1-.755.2,7.463,7.463,0,0,1-2.734.1,8.818,8.818,0,0,1-5.433-3.166c-.088-.1-.175-.211-.255-.319a10.368,10.368,0,0,1-1.51-2.71c0-.005-.005-.012-.005-.018-.088-.222-.169-.458-.239-.692-1.567-5.129.784-10.493,5.26-11.98a7.874,7.874,0,0,1,6.918,1.048,9.314,9.314,0,0,1,.785.59,10.45,10.45,0,0,1,3.233,4.967A10.127,10.127,0,0,1,1054.652,192.975Z" transform="translate(-997.838 -174.378)" fill="#b5846b" stroke="#263238" stroke-linecap="round" stroke-linejoin="round" stroke-width="2.5"/>
          <path id="Path_223" data-name="Path 223" d="M1053.288,182.841c-1.5-4.55-5.87-8.287-10.841-6.636a7.65,7.65,0,0,0-2.155,1.131,7.931,7.931,0,0,1,6.308,1.21,9.376,9.376,0,0,1,.783.59,10.441,10.441,0,0,1,3.233,4.967,10.918,10.918,0,0,1-2.907,10.816,9.287,9.287,0,0,0,6.039-7.4A10.263,10.263,0,0,0,1053.288,182.841Z" transform="translate(-994.277 -174.373)" fill="#fff"/>
          <path id="Path_224" data-name="Path 224" d="M1054.652,192.975a7.736,7.736,0,0,1-2.972,1.818,6.565,6.565,0,0,1-.755.2,7.463,7.463,0,0,1-2.734.1,8.818,8.818,0,0,1-5.433-3.166c-.088-.1-.175-.211-.255-.319a10.368,10.368,0,0,1-1.51-2.71c0-.005-.005-.012-.005-.018-.088-.222-.169-.458-.239-.692-1.567-5.129.784-10.493,5.26-11.98a7.874,7.874,0,0,1,6.918,1.048,9.314,9.314,0,0,1,.785.59,10.45,10.45,0,0,1,3.233,4.967A10.127,10.127,0,0,1,1054.652,192.975Z" transform="translate(-997.838 -174.378)" fill="none" stroke="#263238" stroke-linecap="round" stroke-linejoin="round" stroke-width="2.5"/>
          <path id="Path_225" data-name="Path 225" d="M1054.652,192.975a7.736,7.736,0,0,1-2.972,1.818,6.565,6.565,0,0,1-.755.2,7.463,7.463,0,0,1-2.734.1,8.818,8.818,0,0,1-5.433-3.166c-.088-.1-.175-.211-.255-.319a10.368,10.368,0,0,1-1.51-2.71c0-.005-.005-.012-.005-.018-.088-.222-.169-.458-.239-.692-1.567-5.129.784-10.493,5.26-11.98a7.874,7.874,0,0,1,6.918,1.048,9.314,9.314,0,0,1,.785.59,10.45,10.45,0,0,1,3.233,4.967A10.127,10.127,0,0,1,1054.652,192.975Z" transform="translate(-997.838 -174.378)" fill="none" stroke="#263238" stroke-linecap="round" stroke-linejoin="round" stroke-width="2.5"/>
          <path id="Path_226" data-name="Path 226" d="M1054.652,192.975a7.736,7.736,0,0,1-2.972,1.818,6.565,6.565,0,0,1-.755.2,7.463,7.463,0,0,1-2.734.1,8.818,8.818,0,0,1-5.433-3.166c-.088-.1-.175-.211-.255-.319a10.368,10.368,0,0,1-1.51-2.71c0-.005-.005-.012-.005-.018-.088-.222-.169-.458-.239-.692-1.567-5.129.784-10.493,5.26-11.98a7.874,7.874,0,0,1,6.918,1.048,9.314,9.314,0,0,1,.785.59,10.45,10.45,0,0,1,3.233,4.967A10.127,10.127,0,0,1,1054.652,192.975Z" transform="translate(-997.838 -174.378)" fill="none" stroke="#263238" stroke-linecap="round" stroke-linejoin="round" stroke-width="2.5"/>
          <path id="Path_227" data-name="Path 227" d="M1054.652,192.975a7.736,7.736,0,0,1-2.972,1.818,6.565,6.565,0,0,1-.755.2,7.463,7.463,0,0,1-2.734.1,8.818,8.818,0,0,1-5.433-3.166c-.088-.1-.175-.211-.255-.319a10.368,10.368,0,0,1-1.51-2.71c0-.005-.005-.012-.005-.018-.088-.222-.169-.458-.239-.692-1.567-5.129.784-10.493,5.26-11.98a7.874,7.874,0,0,1,6.918,1.048,9.314,9.314,0,0,1,.785.59,10.45,10.45,0,0,1,3.233,4.967A10.127,10.127,0,0,1,1054.652,192.975Z" transform="translate(-997.838 -174.378)" fill="none" stroke="#263238" stroke-linecap="round" stroke-linejoin="round" stroke-width="2.5"/>
          <path id="Path_228" data-name="Path 228" d="M1040.751,188.189a7.014,7.014,0,0,0,.235.7c0,.008.007.008.007.016a10.03,10.03,0,0,0,1.44,2.605.418.418,0,0,0,.073.1c.081.106.161.219.251.315a8.8,8.8,0,0,0,5.436,3.172,7.62,7.62,0,0,0,2.735-.1c.25-.057.5-.122.751-.2a7.724,7.724,0,0,0,2.969-1.821,10.136,10.136,0,0,0,2.3-10.161,10.849,10.849,0,0,0-1.4-2.921,9.717,9.717,0,0,0-1.837-2.047,8.922,8.922,0,0,0-.785-.591,7.875,7.875,0,0,0-6.916-1.052,8.527,8.527,0,0,0-5.089,5.122A10.606,10.606,0,0,0,1040.751,188.189Z" transform="translate(-997.839 -174.377)" fill="none" stroke="#263238" stroke-linecap="round" stroke-linejoin="round" stroke-width="2.5"/>
          <path id="Path_229" data-name="Path 229" d="M1093.657,189.548a1.1,1.1,0,0,0,2.042-.052c.652-2.3,1.92-5.97,3.727-7.54,2.73-2.375,1.672-4.174-.229-3.72s-5.549,5.488-5.827,8.84A5.7,5.7,0,0,0,1093.657,189.548Z" transform="translate(-1080.985 -174.976)" fill="#263238" stroke="#263238" stroke-linecap="round" stroke-linejoin="round" stroke-width="2.5"/>
          <path id="Path_230" data-name="Path 230" d="M1009.684,235.382s1.742,10.846,4.451,14.659a81.046,81.046,0,0,0,7.35,8.428" transform="translate(-939.148 -189.625)" fill="none" stroke="#263238" stroke-linecap="round" stroke-linejoin="round" stroke-width="2.5"/>
          <path id="Path_231" data-name="Path 231" d="M1067.637,264.391c-6.385,12.642-17.014,15.953-33.377,15.953" transform="translate(-1003.583 -197.052)" fill="none" stroke="#263238" stroke-linecap="round" stroke-linejoin="round" stroke-width="2.5"/>
          <line id="Line_10" data-name="Line 10" x2="3.977" y2="5.219" transform="translate(20.838 47.144)" fill="none" stroke="#263238" stroke-linecap="round" stroke-linejoin="round" stroke-width="2.5"/>
          <path id="Path_232" data-name="Path 232" d="M1088.681,235.382l.568,8.071a67.875,67.875,0,0,1-1.149,16.167l-1.3,5.18" transform="translate(-1064.363 -189.625)" fill="none" stroke="#263238" stroke-linecap="round" stroke-linejoin="round" stroke-width="2.5"/>
          <line id="Line_11" data-name="Line 11" x1="3.944" y2="1.719" transform="translate(20.943 51.419)" fill="none" stroke="#263238" stroke-linecap="round" stroke-linejoin="round" stroke-width="2.5"/>
          <path id="Path_233" data-name="Path 233" d="M1088.517,262.787c0,2.7-6.208,10.777-5.209,9.027" transform="translate(-1060.873 -196.641)" fill="#1593c4" stroke="#263238" stroke-linecap="round" stroke-linejoin="round" stroke-width="2.5"/>
          <path id="Path_234" data-name="Path 234" d="M1009.684,235.382s1.742,10.846,4.451,14.659a81.046,81.046,0,0,0,7.35,8.428" transform="translate(-939.148 -189.625)" fill="none" stroke="#263238" stroke-linecap="round" stroke-linejoin="round" stroke-width="2.5"/>
          <path id="Path_235" data-name="Path 235" d="M1067.637,264.391c-6.385,12.642-17.014,15.953-33.377,15.953" transform="translate(-1003.583 -197.052)" fill="none" stroke="#263238" stroke-linecap="round" stroke-linejoin="round" stroke-width="2.5"/>
          <line id="Line_12" data-name="Line 12" x2="3.977" y2="5.219" transform="translate(20.838 47.144)" fill="none" stroke="#263238" stroke-linecap="round" stroke-linejoin="round" stroke-width="2.5"/>
          <path id="Path_236" data-name="Path 236" d="M1088.681,235.382l.568,8.071a67.875,67.875,0,0,1-1.149,16.167l-1.3,5.18" transform="translate(-1064.363 -189.625)" fill="none" stroke="#263238" stroke-linecap="round" stroke-linejoin="round" stroke-width="2.5"/>
          <line id="Line_13" data-name="Line 13" x1="3.944" y2="1.719" transform="translate(20.943 51.419)" fill="none" stroke="#263238" stroke-linecap="round" stroke-linejoin="round" stroke-width="2.5"/>
          <path id="Path_237" data-name="Path 237" d="M1088.517,262.787c0,2.7-6.208,10.777-5.209,9.027" transform="translate(-1060.873 -196.641)" fill="#1593c4" stroke="#263238" stroke-linecap="round" stroke-linejoin="round" stroke-width="2.5"/>
          <path id="Path_238" data-name="Path 238" d="M1044.7,377.534l-2.772,9.708h34.288l-11.757-9.708Z" transform="translate(-1017.862 -226.019)" fill="#01b35b" stroke="#263238" stroke-linecap="round" stroke-linejoin="round" stroke-width="2.5"/>
          <path id="Path_239" data-name="Path 239" d="M994.542,377.534l-2.773,9.708h34.288l-11.757-9.708Z" transform="translate(-930.392 -226.019)" fill="#01b35b" stroke="#263238" stroke-linecap="round" stroke-linejoin="round" stroke-width="2.5"/>
          <path id="Path_240" data-name="Path 240" d="M1000.363,323.334a23.037,23.037,0,0,1-6.781-1.594,8.22,8.22,0,0,1-2.191-1.4c-8.01-7.394-2.355-24.634-2.355-24.634l35.038-3.139,23.6-2.12s23.882-5.566,14.708,33.589c-2.564,10.945-2.338,38.4-5.549,35.984s-10.1,2.427-20.726,1.618c-8.641-.655-11.359-2.734-12.079-3.487-.42,1.61-.937,2.362-1.594,1.869-3.219-2.419-10.1,2.427-20.727,1.618s-12.3-3.77-12.3-3.77a25.89,25.89,0,0,0,3.463-12.006C993.139,340.413,997.959,328.82,1000.363,323.334Zm26.9,22.531c.365-7.281,8.844-25.524,8.844-25.524s-3.051.615-7.59,1.31c-.17.777-.34,1.57-.533,2.387-1.934,8.243-2.282,25.855-3.706,33.015A26.979,26.979,0,0,0,1027.261,345.865Z" transform="translate(-965.338 -203.654)" fill="#1593c4" stroke="#263238" stroke-linecap="round" stroke-linejoin="round" stroke-width="2.5"/>
          <path id="Path_241" data-name="Path 241" d="M984.471,251.68c2.9,5.525,8.284,5.987,14.506,4.822.016,0,2.637-.632,6.545-1.716v.008l-.073.226v.009s-3.948,19.149.776,18.971c.575-.025,1.189-.048,1.852-.081,4.134-.178,13.122,4.482,37.409.866,17.441-2.589,22.168-5.277,22.361-8.384.276-4.376,1.182-1.143,4.013-1.143,9.627,0,13.351-7.171,13.351-16.8,0-7.176-12.244-32.562-13.49-35.855-1.084-2.856-7.515-13.551-18.106-11.9-.218.04-4.615-5.649-15.1-1.9-.159.057-2.071.065-2.734.1-6.706.275-13.271-6.614-25.2.926-1,.632-1.336,1.8-2.532,2.068-1.365.307-4.761,3.576-5.748,4.579q-.3.291-.583.606a22.374,22.374,0,0,0-1.61,1.966q-.254.328-.485.68c-.161.234-.315.461-.461.7-.308.461-.6.938-.866,1.416-.138.234-.275.478-.4.712s-.251.478-.381.712-.242.469-.356.7c-.235.469-.462.938-.664,1.391-.106.227-.2.453-.3.672s-.195.444-.283.663-.178.429-.268.639c-.039.1-.081.186-.113.283-.089.211-.17.412-.243.615-.478,1.222-.85,2.265-1.125,3.026-.065.162-.121.315-.17.453-.024.065-.048.129-.073.186-.04.089-.073.178-.1.251s-.066.129-.089.187l-6.99,13.445a53.9,53.9,0,0,1-2.37,5.008A11.793,11.793,0,0,0,984.471,251.68Z" transform="translate(-983.084 -179.616)" fill="#fff" stroke="#263238" stroke-linecap="round" stroke-linejoin="round" stroke-width="2.5"/>
          <path id="Path_242" data-name="Path 242" d="M1067.637,264.391c-6.385,12.642-17.014,15.953-33.377,15.953" transform="translate(-1003.583 -197.052)" fill="none" stroke="#263238" stroke-linecap="round" stroke-linejoin="round" stroke-width="2.5"/>
          <path id="Path_243" data-name="Path 243" d="M1088.681,235.382l.568,8.071a67.875,67.875,0,0,1-1.149,16.167l-1.3,5.18" transform="translate(-1064.363 -189.625)" fill="none" stroke="#263238" stroke-linecap="round" stroke-linejoin="round" stroke-width="2.5"/>
          <line id="Line_14" data-name="Line 14" x1="3.944" y2="1.719" transform="translate(20.943 51.419)" fill="none" stroke="#263238" stroke-linecap="round" stroke-linejoin="round" stroke-width="2.5"/>
          <path id="Path_244" data-name="Path 244" d="M1088.517,262.787c0,2.7-6.208,10.777-5.209,9.027" transform="translate(-1060.873 -196.641)" fill="#1593c4" stroke="#263238" stroke-linecap="round" stroke-linejoin="round" stroke-width="2.5"/>
          <path id="Path_245" data-name="Path 245" d="M1035.437,329.958c6.653,3.208,14.547,2.654,21.677,1.879" transform="translate(-993.935 -213.839)" fill="none" stroke="#263238" stroke-linecap="round" stroke-linejoin="round" stroke-width="2.5"/>
          <path id="Path_246" data-name="Path 246" d="M1011.641,330.21s7.754-2.926,10.114-.568" transform="translate(-940.873 -213.523)" fill="none" stroke="#263238" stroke-linecap="round" stroke-linejoin="round" stroke-width="2.5"/>
          <path id="Path_247" data-name="Path 247" d="M1067.637,264.391c-6.385,12.642-17.014,15.953-33.377,15.953" transform="translate(-1003.583 -197.052)" fill="none" stroke="#263238" stroke-linecap="round" stroke-linejoin="round" stroke-width="2.5"/>
          <path id="Path_248" data-name="Path 248" d="M1088.681,235.382l.568,8.071a67.875,67.875,0,0,1-1.149,16.167l-1.3,5.18" transform="translate(-1064.363 -189.625)" fill="none" stroke="#263238" stroke-linecap="round" stroke-linejoin="round" stroke-width="2.5"/>
          <line id="Line_15" data-name="Line 15" x1="3.944" y2="1.719" transform="translate(20.943 51.419)" fill="none" stroke="#263238" stroke-linecap="round" stroke-linejoin="round" stroke-width="2.5"/>
          <path id="Path_249" data-name="Path 249" d="M1088.517,262.787c0,2.7-6.208,10.777-5.209,9.027" transform="translate(-1060.873 -196.641)" fill="#1593c4" stroke="#263238" stroke-linecap="round" stroke-linejoin="round" stroke-width="2.5"/>
          <path id="Path_250" data-name="Path 250" d="M1100.545,202.235a1.033,1.033,0,0,0,.026-1.543,1.248,1.248,0,0,0-1.668,0,1.034,1.034,0,0,0-.027,1.542A1.25,1.25,0,0,0,1100.545,202.235Z" transform="translate(-1084.677 -180.662)" fill="#263238" stroke="#263238" stroke-linecap="round" stroke-linejoin="round" stroke-width="2.5"/>
          <path id="Path_251" data-name="Path 251" d="M1005.558,235.382s1.742,10.846,4.451,14.659,10.42,24.084,10.42,24.084" transform="translate(-935.022 -189.625)" fill="none" stroke="#263238" stroke-linecap="round" stroke-linejoin="round" stroke-width="2.5"/>
          <path id="Path_252" data-name="Path 252" d="M1067.637,264.391c-6.385,12.642-17.014,15.953-33.377,15.953" transform="translate(-1003.583 -197.052)" fill="none" stroke="#263238" stroke-linecap="round" stroke-linejoin="round" stroke-width="2.5"/>
          <path id="Path_253" data-name="Path 253" d="M1088.681,235.382l.568,8.071a67.875,67.875,0,0,1-1.149,16.167l-1.3,5.18" transform="translate(-1064.363 -189.625)" fill="none" stroke="#263238" stroke-linecap="round" stroke-linejoin="round" stroke-width="2.5"/>
          <line id="Line_16" data-name="Line 16" x1="3.944" y2="1.719" transform="translate(20.943 51.419)" fill="none" stroke="#263238" stroke-linecap="round" stroke-linejoin="round" stroke-width="2.5"/>
          <path id="Path_254" data-name="Path 254" d="M1088.517,262.787c0,2.7-6.208,10.777-5.209,9.027" transform="translate(-1060.873 -196.641)" fill="#1593c4" stroke="#263238" stroke-linecap="round" stroke-linejoin="round" stroke-width="2.5"/>
          <path id="Path_255" data-name="Path 255" d="M1029.433,201.725s-5.584,5.5-3.355,12.426c1.039,3.228,3.222,9.411,12.276,9.4,11.735-.016,15.539-6.307,21.3-12.679a33.944,33.944,0,0,1,13.413-8.773" transform="translate(-1002.539 -181.008)" fill="none" stroke="#263238" stroke-linecap="round" stroke-linejoin="round" stroke-width="2.5"/>
          <path id="Path_256" data-name="Path 256" d="M1073.089,205.565c-.742,1.013-1.619,2.339-2.651,4.064-5.671,9.479-15.505,8.09-18.64,2.629" transform="translate(-1022.084 -181.991)" fill="none" stroke="#263238" stroke-linecap="round" stroke-linejoin="round" stroke-width="2.5"/>
          <g id="Group_91" data-name="Group 91" transform="translate(9.751 52.278)">
            <path id="Rectangle_31" data-name="Rectangle 31" d="M11.96,0H48.22a11.96,11.96,0,0,1,11.96,11.96V33.142A11.96,11.96,0,0,1,48.22,45.1H11.961A11.961,11.961,0,0,1,0,33.142V11.96A11.96,11.96,0,0,1,11.96,0Z" transform="translate(0 0)" fill="#01b35b" stroke="#263238" stroke-linecap="round" stroke-linejoin="round" stroke-width="2.5"/>
            <g id="Group_89" data-name="Group 89" transform="translate(1.2 45.103)">
              <line id="Line_17" data-name="Line 17" x2="16.842" y2="67.708" transform="translate(42.739)" fill="none" stroke="#263238" stroke-linecap="round" stroke-linejoin="round" stroke-width="2.5"/>
              <line id="Line_18" data-name="Line 18" x1="15.597" y2="67.138" fill="none" stroke="#263238" stroke-linecap="round" stroke-linejoin="round" stroke-width="2.5"/>
            </g>
            <g id="Group_90" data-name="Group 90" transform="translate(1.805 64.406)">
              <path id="Path_257" data-name="Path 257" d="M1023.686,338.022a192.948,192.948,0,0,0,60.365,0q-.577-3.651-1.156-7.3a185.5,185.5,0,0,1-58.052,0Q1024.265,334.371,1023.686,338.022Z" transform="translate(-1023.686 -330.718)" fill="#01b35b"/>
              <path id="Path_258" data-name="Path 258" d="M1023.686,338.022a192.948,192.948,0,0,0,60.365,0q-.577-3.651-1.156-7.3a185.5,185.5,0,0,1-58.052,0Q1024.265,334.371,1023.686,338.022Z" transform="translate(-1023.686 -330.718)" fill="none" stroke="#263238" stroke-linecap="round" stroke-linejoin="round" stroke-width="2.5"/>
            </g>
          </g>
          <path id="Path_259" data-name="Path 259" d="M1043.55,191.408a9.366,9.366,0,0,0,8.995,7.29c4.827.19,8.757-2.378,12-5.7.533-.542.849-.907.849-.907,6.184-3.166,10.327-8.986,11.175-14.815.3-.06,3.688,1.716,3.965,1.568a11.849,11.849,0,0,0-2.238-2.5,11.239,11.239,0,0,0-.958-.72,9.6,9.6,0,0,0-8.433-1.282,10.3,10.3,0,0,0-3.579,2.063c-1.631,1.46-1.7,3.721-3.681,4.922a9.777,9.777,0,0,1-8.6.708C1046.883,179.572,1042.2,185.885,1043.55,191.408Z" transform="translate(-1023.22 -173.879)" fill="#263238" stroke="#263238" stroke-linecap="round" stroke-linejoin="round" stroke-width="2.5"/>
        </g>
      </g>
      <g id="Speech_bubble_1" data-name="Speech bubble 1" transform="translate(75.439 0)">
        <g id="Group_94" data-name="Group 94" transform="translate(0)">
          <path id="Path_260" data-name="Path 260" d="M998.048,124.023H960.737A3.736,3.736,0,0,0,957,127.759v30.9a3.736,3.736,0,0,0,3.735,3.737h11.994l-1.227,8.62a.927.927,0,0,0,1.426.905l14.508-9.525h10.61a3.737,3.737,0,0,0,3.736-3.737v-30.9A3.736,3.736,0,0,0,998.048,124.023Z" transform="translate(-957.002 -124.023)" fill="#fff" stroke="#263238" stroke-linecap="round" stroke-linejoin="round" stroke-width="2.5"/>
          <g id="Group_93" data-name="Group 93" transform="translate(16.295 8.373)">
            <path id="Path_261" data-name="Path 261" d="M983.183,146.58a1.7,1.7,0,0,1,1.278-.519,5,5,0,0,0,3.149-.921,3.383,3.383,0,0,0,1.187-2.852,3.2,3.2,0,0,0-1.068-2.466,3.809,3.809,0,0,0-2.674-.981,4.229,4.229,0,0,0-2.881,1.1,2.186,2.186,0,0,1-1.484.654,1.574,1.574,0,0,1-1.011-.356,1.652,1.652,0,0,1-.208-2.643,7.586,7.586,0,0,1,2.509-1.708,7.8,7.8,0,0,1,3.075-.609,7.484,7.484,0,0,1,3.684.921,7.017,7.017,0,0,1,2.643,2.539,6.711,6.711,0,0,1,.98,3.55,6.168,6.168,0,0,1-1.634,4.514,7.484,7.484,0,0,1-4.337,2.081c-.1.039-.15.088-.15.147v1.1a1.786,1.786,0,0,1-.5,1.292,1.833,1.833,0,0,1-2.556,0,1.778,1.778,0,0,1-.5-1.292v-2.258A1.778,1.778,0,0,1,983.183,146.58ZM982.99,156.8a1.79,1.79,0,0,1-.462-1.323v-.5a1.61,1.61,0,0,1,1.784-1.783h.386a1.61,1.61,0,0,1,1.783,1.783v.5a1.609,1.609,0,0,1-1.783,1.783h-.386A1.791,1.791,0,0,1,982.99,156.8Z" transform="translate(-978.905 -135.277)" fill="#01b35b"/>
          </g>
        </g>
      </g>
    </g>
  </g>
</svg>
