<svg xmlns="http://www.w3.org/2000/svg" width="144.238" height="202.506" viewBox="0 0 144.238 202.506">
  <g id="events_workshop_img" transform="translate(-1202.682 -122.766)">
    <g id="Character_5" data-name="Character 5" transform="translate(1205.326 124.023)">
      <g id="Group_96" data-name="Group 96">
        <path id="Path_262" data-name="Path 262" d="M1329.064,183.407a8.276,8.276,0,0,1,7.21,3.048l6.6,12.563,12.987-3.591a22.555,22.555,0,0,1,3.253-5.782c1.944-2.265,2.983-2.428,3.884-1.554s-.971,4.282-1.014,5.112.906,1.047,1.547.43,6.248-7.864,8.567-7.219,1.642,2.266,1.642,2.266.609-1.229,1.63.812a3.969,3.969,0,0,1,.1,2.942s1.652,4.986-2.374,10.366c-4.946,6.611-28.051,16.107-28.051,16.107-5.528,3-9.565.165-11.907-3.689-.53-.872-11.355-21.23-11.517-22.967A8.159,8.159,0,0,1,1329.064,183.407Z" transform="translate(-1235.466 -139.069)" fill="#fcd8c3" stroke="#263238" stroke-linecap="round" stroke-linejoin="round" stroke-width="2.5"/>
        <path id="Path_263" data-name="Path 263" d="M1346.958,196.98l1.76,3.71,12.987-3.592a22.543,22.543,0,0,1,3.254-5.782c1.943-2.266,2.982-2.428,3.882-1.555.756.735-.44,3.251-.868,4.531a1.27,1.27,0,0,0-.224-1.072c-.9-.874-1.938-.711-3.881,1.554a17.838,17.838,0,0,1-4.672,3.683l-11.569,5.69-2.838-5.68A5.991,5.991,0,0,0,1346.958,196.98Z" transform="translate(-1241.146 -140.497)" fill="#fff"/>
        <path id="Path_264" data-name="Path 264" d="M1388.786,190.916a22.605,22.605,0,0,1-5.252,7.424" transform="translate(-1250.631 -140.893)" fill="#b5846b" stroke="#263238" stroke-linecap="round" stroke-linejoin="round" stroke-width="2.5"/>
        <path id="Path_265" data-name="Path 265" d="M1391.023,195.887a24.542,24.542,0,0,1-5.412,7.6" transform="translate(-1251.14 -142.147)" fill="#b5846b" stroke="#263238" stroke-linecap="round" stroke-linejoin="round" stroke-width="2.5"/>
        <path id="Path_266" data-name="Path 266" d="M1374.665,197.733s2.885,3.285-1.192,7.381" transform="translate(-1248.168 -142.612)" fill="none" stroke="#263238" stroke-linecap="round" stroke-linejoin="round" stroke-width="2.5"/>
        <path id="Path_267" data-name="Path 267" d="M1328.9,183.925a8.271,8.271,0,0,1,7.208,3.047l6.6,12.563,12.988-3.591a22.527,22.527,0,0,1,3.253-5.782c1.942-2.266,2.982-2.429,3.882-1.555s-.97,4.282-1.012,5.112.906,1.047,1.546.43,6.248-7.864,8.568-7.219,1.643,2.265,1.643,2.265.609-1.228,1.629.812a3.968,3.968,0,0,1,.1,2.942s1.651,4.986-2.374,10.366c-4.946,6.611-28.051,16.108-28.051,16.108-5.527,3-9.564.165-11.907-3.69,1.951,3.209-11.447-22.22-11.517-22.967A8.159,8.159,0,0,1,1328.9,183.925Z" transform="translate(-1235.426 -139.2)" fill="none" stroke="#263238" stroke-linecap="round" stroke-linejoin="round" stroke-width="2.5"/>
        <path id="Path_268" data-name="Path 268" d="M1273.606,376.066h-17.368l-17.2,10h36.938Z" transform="translate(-1214.242 -187.612)" fill="#01b35b" stroke="#263238" stroke-linecap="round" stroke-linejoin="round" stroke-width="2.5"/>
        <path id="Path_269" data-name="Path 269" d="M1324.844,376.066h-17.368l-17.2,10h38.286Z" transform="translate(-1227.29 -187.612)" fill="#01b35b" stroke="#263238" stroke-linecap="round" stroke-linejoin="round" stroke-width="2.5"/>
        <path id="Path_270" data-name="Path 270" d="M1257.657,241.329a2.547,2.547,0,0,0,.073-2.072h22.227l-.053,1.259,11.166-9.223s14.3,2.778,15.169,3.769c7.261,8.324,3.4,37.851,3.133,51.688-.014.728,1.665,5.212,3.439,9.737,1.8,4.6,2.152,9.407,2.065,14.3a55.128,55.128,0,0,0,1.2,11.531c1.013,4.5,2.88,8.734,2.987,13.324.059,2.528.733,4.144.792,6.673l-7.968,1.568c-3.629.714-11.746,2.253-15.3,1.235l-7.908-2.1-2.519-8.843c-.585-4.976-.039-10.318-1.224-15.181l-4.6-22.379-2.291-18.975-.668,16.106,1.147,2.906c2.684,6.8,1.869,18.647.578,26.166a15.042,15.042,0,0,0,1.641,9.834,9.13,9.13,0,0,1-.108,8.79l-.78,1.411-4.557.028a21.415,21.415,0,0,0-5.125.656l-3.051.773a21.414,21.414,0,0,1-14.178-1.291s-1.549-.712-1.167-16.723c.248-10.339-2.441-28.1-2.591-35.918C1248.91,276.545,1255.57,246.246,1257.657,241.329Z" transform="translate(-1217.017 -152.169)" fill="#1593c4"/>
        <path id="Path_271" data-name="Path 271" d="M1294.218,239.257l-.053,1.259,10.422-8.608c-1.793-.37-3.058-.615-3.058-.615l-9.641,7.964Z" transform="translate(-1227.532 -151.083)" fill="#fff"/>
        <path id="Path_272" data-name="Path 272" d="M1309.925,359.808l-7.908-2.095-2.519-8.843c-.584-4.976-.039-10.318-1.223-15.181l-3.543-15.181-6.58-27.212s1.239,20.149,5.32,34.791l1,7.6c1.185,4.863.639,10.2,1.223,15.181l2.519,8.843,7.907,2.095a16.649,16.649,0,0,0,5.247.258A8.4,8.4,0,0,1,1309.925,359.808Z" transform="translate(-1226.646 -166.859)" fill="#fff"/>
        <path id="Path_273" data-name="Path 273" d="M1256.738,345.6s-1.548-.712-1.167-16.723c.248-10.338-2.441-28.1-2.591-35.918-.267-13.837,6.393-44.136,8.479-49.053a2.548,2.548,0,0,0,.074-2.072h-3.8a2.547,2.547,0,0,1-.073,2.072c-2.087,4.917-8.747,35.216-8.479,49.053.15,7.818,2.839,25.58,2.591,35.918-.382,16.011,1.167,16.723,1.167,16.723a21.432,21.432,0,0,0,10.806,1.86A21.474,21.474,0,0,1,1256.738,345.6Z" transform="translate(-1216.745 -154.751)" fill="#fff"/>
        <path id="Path_274" data-name="Path 274" d="M1257.657,241.329a2.547,2.547,0,0,0,.073-2.072h22.227l-.053,1.259,11.166-9.223s14.3,2.778,15.169,3.769c7.261,8.324,3.4,37.851,3.133,51.688-.014.728,1.665,5.212,3.439,9.737,1.8,4.6,2.152,9.407,2.065,14.3a46.943,46.943,0,0,0,2.246,15.311c1.707,5.193,2.017,10.8,2.729,16.217l-7.968,1.568c-3.629.714-11.746,2.253-15.3,1.235l-7.908-2.1-2.519-8.843c-.585-4.976-.039-10.318-1.224-15.181l-4.6-22.379-2.291-18.975-.668,16.106,1.147,2.906c2.684,6.8,1.869,18.647.578,26.166a15.042,15.042,0,0,0,1.641,9.834,9.13,9.13,0,0,1-.108,8.79l-.78,1.411-4.557.028a21.415,21.415,0,0,0-5.125.656l-3.051.773a21.414,21.414,0,0,1-14.178-1.291s-1.549-.712-1.167-16.723c.248-10.339-2.441-28.1-2.591-35.918C1248.91,276.545,1255.57,246.246,1257.657,241.329Z" transform="translate(-1217.017 -152.169)" fill="none" stroke="#263238" stroke-linecap="round" stroke-linejoin="round" stroke-width="2.5"/>
        <path id="Path_275" data-name="Path 275" d="M1335.262,205.187c-.091.483-.9,1.14-2.157,1.88-5.037,2.986-17.261,7.453-18.844,8.565-8.728,4.733-17.408-16.422-17.891-17.618,7.586,22.952,5.759,27.174,1.6,26.832-.147-.007-.294-.028-.447-.049l-4.47-.657a8.331,8.331,0,0,0-3.636.259,58.178,58.178,0,0,1-13.632,2.1,22.592,22.592,0,0,1-5-.335l-1.051-.189a30.065,30.065,0,0,0-6.073-.469l-11.334.295c-6.4-.8-6.165-5.1-2.585-13,2.676-5.893,1.386-13.339,2.088-17.331.014-.049.014-.1.028-.147-.049.189-.092.385-.147.588a24.856,24.856,0,0,1-8.757,13.164c-10.683,8.243-21.673-4.425-24.462-15.493a11.587,11.587,0,0,0-1.058-1.951l-3.5-9.626c4.232-2.5,17.023-9.7,17.052-9.914.035-.265,1.3,3.314,1.911,4.768v.007l1.527,2.552c1.086-4.209,5.493-6.4,6.011-7.8v-.014a.764.764,0,0,0,.035-.125,14.336,14.336,0,0,1,2.375-5.335,9.443,9.443,0,0,1,.63-.783c.1-.119.2-.23.308-.342,0,0,0-.007.014-.014.113-.112.224-.23.343-.35a10.255,10.255,0,0,1,1.142-.985c.141-.1.273-.21.413-.307a13.147,13.147,0,0,1,1.345-.839c.155-.091.315-.175.477-.252.182-.1.37-.2.553-.279.322-.146.651-.293.995-.427l.545-.209c.323-.119.652-.231.982-.335.134-.042.266-.085.406-.119.722-.217,1.485-.412,2.283-.573.225-.049.45-.091.673-.133.456-.091.932-.168,1.409-.238.211-.035.42-.063.636-.091s.427-.063.645-.084c.309-.042.618-.077.939-.113.526-.055,1.072-.1,1.626-.14.279-.02.553-.042.833-.055s.56-.035.848-.049c2-.1,10.136-4.034,11.4-4.649l.162-.077,5.941,2.754s7.558,1.678,9.89,1.245c10.235-1.825,22.347,7.488,23.79,17.639.582,4.034,1.863,11.373,3.278,14.994a.3.3,0,0,0,.055.091.194.194,0,0,0,.042.035c.757.56,6.068-.264,8.841-1.774,1.542-.846,2.74-1.252,2.845-.385C1327.521,192.477,1335.823,202.076,1335.262,205.187Z" transform="translate(-1207.774 -131.531)" fill="#01b35b"/>
        <path id="Path_276" data-name="Path 276" d="M1372.957,216.1c-.092.483-.316.272-1.592,1.013a38.444,38.444,0,0,0-4.61-8.081,34.673,34.673,0,0,1-4.306-9.312c1.558-.846,2.18-.384,2.287.483C1365.131,203.392,1373.525,212.991,1372.957,216.1Z" transform="translate(-1245.469 -143.032)" fill="#fff"/>
        <path id="Path_277" data-name="Path 277" d="M1231.5,179.743a6.612,6.612,0,0,1,1.171,1.7h.011a36.074,36.074,0,0,0-1.512-3.728c-.028.218-12.965,7.419-17.239,9.913l.638,1.738A159.685,159.685,0,0,0,1231.5,179.743Z" transform="translate(-1207.773 -137.57)" fill="#fff"/>
        <path id="Path_278" data-name="Path 278" d="M1295.814,158.686c-2.361.437-10-1.241-10-1.241l-6.008-2.759s-.058.032-.166.08c-1.276.615-9.5,4.547-11.522,4.647l-.856.048a37.718,37.718,0,0,0-10.186,1.781,14.119,14.119,0,0,0-9.6,10.227.983.983,0,0,1-.043.137c-.5,1.343-4.606,3.42-5.913,7.3v.44h-.14c-.006.02-.013.037-.019.056l.535.868.809,1.192c1.1-4.208,5.152-5.24,5.675-6.652.015-.042.026-.085.037-.127,1.312-5.531,5.4-9,10.735-10.6,4.243-1.272,8.81-.778,12.917-2.342,2.809-1.07,5.544-2.342,8.253-3.642.085-.041.17-.085.257-.123.109-.048.166-.08.166-.08l6.008,2.759s7.637,1.678,10,1.242c8.352-1.439,21.978,6.208,23.05,13.981C1318.511,165.854,1305.71,156.981,1295.814,158.686Z" transform="translate(-1215.058 -131.53)" fill="#fff"/>
        <path id="Path_279" data-name="Path 279" d="M1250.816,197.4a19.832,19.832,0,0,1-7.862,11.669c-10.683,8.242-21.675-4.425-24.464-15.492a11.456,11.456,0,0,0-1.058-1.949l-3.5-9.626c4.231-2.5,17.027-9.7,17.055-9.916.035-.265,1.3,3.314,1.912,4.768v.007l1.527,2.552c1.086-4.209,5.493-6.4,6.011-7.8v-.014a.8.8,0,0,0,.035-.125,14.366,14.366,0,0,1,2.375-5.335,9.326,9.326,0,0,1,.63-.783c.1-.119.2-.231.31-.342,0,0,0-.008.013-.014.113-.112.225-.231.344-.35a10.317,10.317,0,0,1,1.141-.986c.14-.1.274-.21.414-.308a13.262,13.262,0,0,1,1.345-.839c.154-.091.315-.174.476-.251.182-.1.37-.2.554-.279.321-.147.651-.294.994-.427l.547-.21c.323-.119.651-.23.98-.335.133-.042.266-.084.406-.119.722-.217,1.485-.413,2.284-.573.223-.049.448-.091.673-.133.455-.091.931-.168,1.407-.238.21-.035.42-.063.638-.091s.427-.063.644-.085c.308-.042.617-.076.939-.111.525-.057,1.073-.106,1.625-.14.28-.02.553-.042.833-.056s.56-.035.848-.049c2-.1,10.136-4.033,11.4-4.649.1-.048.161-.077.161-.077l5.941,2.755s7.558,1.678,9.891,1.245c10.233-1.825,22.346,7.486,23.789,17.638.582,4.034,1.864,11.374,3.278,14.995a.394.394,0,0,0,.056.091.209.209,0,0,0,.042.035c1.177.874,11.384-4.592,11.686-2.159.392,3.188,8.693,12.787,8.133,15.9-.448,2.432-19.026,9.053-21,10.445-8.728,4.733-16.839-15.451-17.322-16.646,7.587,22.952,5.19,26.2,1.035,25.86-.147-.007-.293-.028-.448-.049l-4.47-.657a8.3,8.3,0,0,0-3.635.259,58.238,58.238,0,0,1-13.632,2.1,22.644,22.644,0,0,1-5-.335l-1.05-.189a29.96,29.96,0,0,0-6.074-.469l-11.334.294c-6.4-.8-6.165-5.1-2.585-13,2.676-5.893-.075-24.94.857-28.883" transform="translate(-1207.773 -131.531)" fill="none" stroke="#263238" stroke-linecap="round" stroke-linejoin="round" stroke-width="2.5"/>
        <path id="Path_280" data-name="Path 280" d="M1286.28,161.93c.581,2.121,2.822,2.794,5.292,1.77a8.839,8.839,0,0,0,.906-.45c.091-.055.183-.108.277-.167.212-.132.426-.279.624-.428,2.531-1.893,4.036-5.039,3.414-7.312a2.957,2.957,0,0,0-2.767-2.234,1.966,1.966,0,0,0-.2-.005c-.093-.005-.191,0-.29,0a6.518,6.518,0,0,0-3.217,1.081C1287.417,156.006,1285.607,159.471,1286.28,161.93Z" transform="translate(-1226.071 -131.141)" fill="#263238" stroke="#263238" stroke-linecap="round" stroke-linejoin="round" stroke-width="2.5"/>
        <path id="Path_281" data-name="Path 281" d="M1289.108,155.681c3.6,1.279,7.473-.612,9.4-4.3a11.882,11.882,0,0,0,.607-1.422c.048-.152.1-.3.148-.461.1-.356.192-.73.26-1.086.848-4.547-1.334-9.088-5.187-10.456a7.136,7.136,0,0,0-6.655,1.061c-.093.067-.184.14-.276.221-.131.1-.258.211-.388.324a9.749,9.749,0,0,0-2.843,4.576C1282.739,149.03,1284.939,154.2,1289.108,155.681Z" transform="translate(-1225.489 -127.335)" fill="#fcd8c3" stroke="#263238" stroke-linecap="round" stroke-linejoin="round" stroke-width="2.5"/>
        <path id="Path_282" data-name="Path 282" d="M1284.174,144.133a9.748,9.748,0,0,1,2.844-4.576c.13-.113.258-.224.388-.324.091-.08.183-.153.276-.221a7.136,7.136,0,0,1,6.655-1.061c.04.014.076.033.115.048a7.334,7.334,0,0,0-4.679,1.442c-.093.067-.185.14-.276.221-.13.1-.259.211-.386.323a9.743,9.743,0,0,0-2.845,4.576c-1.424,4.859.734,9.984,4.84,11.508a6.793,6.793,0,0,1-2-.39C1284.939,154.2,1282.739,149.03,1284.174,144.133Z" transform="translate(-1225.464 -127.335)" fill="#fff"/>
        <path id="Path_283" data-name="Path 283" d="M1289.108,155.681c3.6,1.279,7.473-.612,9.4-4.3a11.882,11.882,0,0,0,.607-1.422c.048-.152.1-.3.148-.461.1-.356.192-.73.26-1.086.848-4.547-1.334-9.088-5.187-10.456a7.136,7.136,0,0,0-6.655,1.061c-.093.067-.184.14-.276.221-.131.1-.258.211-.388.324a9.749,9.749,0,0,0-2.843,4.576C1282.739,149.03,1284.939,154.2,1289.108,155.681Z" transform="translate(-1225.489 -127.335)" fill="none" stroke="#263238" stroke-linecap="round" stroke-linejoin="round" stroke-width="2.5"/>
        <path id="Path_284" data-name="Path 284" d="M1292.067,141.8c.091.013,2.1.736,2.271,2.318.234,2.128,1.041,3.774,4.888,4.03l.483-.339c.106-.363.2-.745.267-1.11.848-4.547-1.334-9.088-5.187-10.456l-.019-.006a2.3,2.3,0,0,0-.044-2.58,2.272,2.272,0,0,0-2.148-.968c-.06.008-.121.019-.18.032a1.426,1.426,0,0,1-1.533-.836,3.047,3.047,0,0,0-.552-.666c-1.289-1.353-4.047-.639-4.592,2.3C1284.784,138.571,1288.935,141.349,1292.067,141.8Z" transform="translate(-1225.95 -125.622)" fill="#263238" stroke="#263238" stroke-linecap="round" stroke-linejoin="round" stroke-width="2.5"/>
        <path id="Path_285" data-name="Path 285" d="M1317.207,166.041a8.324,8.324,0,0,1,1.848-1.509" transform="translate(-1233.861 -133.94)" fill="none" stroke="#263238" stroke-linecap="round" stroke-linejoin="round" stroke-width="2.5"/>
        <path id="Path_286" data-name="Path 286" d="M1286.588,167.778a4.249,4.249,0,0,0,5.058.585" transform="translate(-1226.158 -134.735)" fill="none" stroke="#263238" stroke-linecap="round" stroke-linejoin="round" stroke-width="2.5"/>
        <path id="Path_287" data-name="Path 287" d="M1273.375,209.689a13.594,13.594,0,0,0,7.965,5.953" transform="translate(-1222.837 -145.623)" fill="none" stroke="#263238" stroke-linecap="round" stroke-linejoin="round" stroke-width="2.5"/>
        <path id="Path_288" data-name="Path 288" d="M1322.724,195.975c-.507-.4,1.293-.11,1.293-3.864" transform="translate(-1235.226 -141.185)" fill="none" stroke="#263238" stroke-linecap="round" stroke-linejoin="round" stroke-width="2.5"/>
        <path id="Path_289" data-name="Path 289" d="M1283.111,124.028a.65.65,0,0,1,.508,1.109c-1.073,1-2.719,2.716-3.093,4.126-.566,2.134-1.814,2.075-2.066.929s1.507-4.522,3.243-5.619A3.525,3.525,0,0,1,1283.111,124.028Z" transform="translate(-1224.103 -124.023)" fill="#263238" stroke="#263238" stroke-linecap="round" stroke-linejoin="round" stroke-width="2.5"/>
        <path id="Path_290" data-name="Path 290" d="M1278.776,141.4a.628.628,0,0,1-.9.236.747.747,0,0,1-.207-.981.629.629,0,0,1,.9-.236A.747.747,0,0,1,1278.776,141.4Z" transform="translate(-1223.869 -128.01)" fill="#263238" stroke="#263238" stroke-linecap="round" stroke-linejoin="round" stroke-width="2.5"/>
        <path id="Path_291" data-name="Path 291" d="M1236.756,177.723l1.438,4.491s2.041,2.834,3.8,5.523a1.527,1.527,0,0,1,.14.128c1.607,1.56,2.664,7.031,4.007,8.007a7.235,7.235,0,0,1,2.591,3.581" transform="translate(-1213.603 -137.597)" fill="none" stroke="#263238" stroke-linecap="round" stroke-linejoin="round" stroke-width="2.5"/>
        <path id="Path_292" data-name="Path 292" d="M1253.586,203.8c0-1.131-1.971-2.047-4.406-2.047" transform="translate(-1216.722 -143.611)" fill="none" stroke="#263238" stroke-linecap="round" stroke-linejoin="round" stroke-width="2.5"/>
        <path id="Path_293" data-name="Path 293" d="M1233.468,183.67c-3.182,2.855-16.017,9.546-16.017,9.546" transform="translate(-1208.635 -139.07)" fill="none" stroke="#263238" stroke-linecap="round" stroke-linejoin="round" stroke-width="2.5"/>
        <path id="Path_294" data-name="Path 294" d="M1321.541,188.563c-.852,2.644.424,5.372,1.417,7.749.875,2.094-.57,6.557,2,12.883" transform="translate(-1234.894 -140.335)" fill="none" stroke="#263238" stroke-linecap="round" stroke-linejoin="round" stroke-width="2.5"/>
        <line id="Line_19" data-name="Line 19" x1="1.083" y2="2.732" transform="translate(31.438 39.939)" fill="none" stroke="#263238" stroke-linecap="round" stroke-linejoin="round" stroke-width="2.5"/>
        <path id="Path_295" data-name="Path 295" d="M1273.375,244.583a34.407,34.407,0,0,1,11.01,3.394" transform="translate(-1222.848 -154.409)" fill="none" stroke="#263238" stroke-linecap="round" stroke-linejoin="round" stroke-width="2.5"/>
        <path id="Path_296" data-name="Path 296" d="M1285.67,285.87a54.927,54.927,0,0,0-.954-11.655c-.757-3.463-2.71-6.268-4.36-9.328" transform="translate(-1224.588 -159.627)" fill="none" stroke="#263238" stroke-linecap="round" stroke-linejoin="round" stroke-width="2.5"/>
        <path id="Path_297" data-name="Path 297" d="M1296.25,346.116c.477,3.525,3.589,12.338,3.589,12.338" transform="translate(-1228.588 -180.28)" fill="none" stroke="#263238" stroke-linecap="round" stroke-linejoin="round" stroke-width="2.5"/>
        <path id="Path_298" data-name="Path 298" d="M1316.557,253.712c0,3.033,3.483,5.487,7.788,5.487" transform="translate(-1233.733 -156.72)" fill="none" stroke="#263238" stroke-linecap="round" stroke-linejoin="round" stroke-width="2.5"/>
        <path id="Path_299" data-name="Path 299" d="M1358.923,202.62s2.839,7.337,4.962,10a41.481,41.481,0,0,1,3.9,6.18" transform="translate(-1244.606 -143.872)" fill="#263238" stroke="#263238" stroke-linecap="round" stroke-linejoin="round" stroke-width="2.5"/>
        <path id="Path_300" data-name="Path 300" d="M1344.1,205.215l1.948-.5a12.767,12.767,0,0,0,4.281-1.6" transform="translate(-1240.672 -143.953)" fill="none" stroke="#263238" stroke-linecap="round" stroke-linejoin="round" stroke-width="2.5"/>
        <path id="Path_301" data-name="Path 301" d="M1227.333,170.794s-1.063-3.821,0-6.722-6.126-9.94-7.926-14.019c-2.655-6.02-5.036-6.218-6.066-3.894-1.1,2.494,1.771,9.61,1.771,9.61s-3.177-.853-4.385,1.1a6.1,6.1,0,0,0-.838,3.342s-3.9-1.562-4.073,1.934.177,5.289,2.3,7.044,3.818,10.38,3.818,10.38Z" transform="translate(-1205.777 -129.105)" fill="#fcd8c3" stroke="#263238" stroke-linecap="round" stroke-linejoin="round" stroke-width="2.5"/>
        <path id="Path_302" data-name="Path 302" d="M1228.9,164.282s-10.644-6.513-11.467-2.6c-.577,2.744,3.8,3.707,4.326,5.489s-1.948,5.379-1.063,5.853" transform="translate(-1208.619 -132.936)" fill="#fcd8c3" stroke="#263238" stroke-linecap="round" stroke-linejoin="round" stroke-width="2.5"/>
        <path id="Path_303" data-name="Path 303" d="M1223.981,162.572a1.82,1.82,0,0,1-1.636,1.951c-1.658.342-4.206-1.34-4.206-1.34" transform="translate(-1208.804 -133.46)" fill="#fcd8c3" stroke="#263238" stroke-linecap="round" stroke-linejoin="round" stroke-width="2.5"/>
        <path id="Path_304" data-name="Path 304" d="M1211.223,165.217s2.041,6.55,4.65,5.518a4.01,4.01,0,0,0,2.432-3.584" transform="translate(-1207.111 -134.108)" fill="#fcd8c3" stroke="#263238" stroke-linecap="round" stroke-linejoin="round" stroke-width="2.5"/>
        <path id="Path_305" data-name="Path 305" d="M1206.042,172.3c.632,1.249,1.682,3.108,3.348,2.844,1.6-.254,2.546-2.217,2.608-3.643" transform="translate(-1205.842 -135.647)" fill="none" stroke="#263238" stroke-linecap="round" stroke-linejoin="round" stroke-width="2.5"/>
        <path id="Path_306" data-name="Path 306" d="M1299.314,158.2l-7.453,8.386s6.186,4.494,7.453,2.54c2.38-3.666,4.189-10.926,4.189-10.926Z" transform="translate(-1227.52 -132.39)" fill="#fff" stroke="#263238" stroke-linecap="round" stroke-linejoin="round" stroke-width="2.5"/>
        <path id="Path_307" data-name="Path 307" d="M1283.1,158.2s5.092,8.4,4.022,8.386-4.046,4.136-4.906,2.54-3.781-10.926-3.781-10.926h4.666Z" transform="translate(-1224.117 -132.39)" fill="#fff" stroke="#263238" stroke-linecap="round" stroke-linejoin="round" stroke-width="2.5"/>
      </g>
    </g>
    <g id="Podium" transform="translate(1203.932 162.461)">
      <g id="Group_98" data-name="Group 98" transform="translate(0)">
        <path id="Rectangle_32" data-name="Rectangle 32" d="M0,0H68.34a0,0,0,0,1,0,0V110.472a5.966,5.966,0,0,1-5.966,5.966H5.966A5.966,5.966,0,0,1,0,110.472V0A0,0,0,0,1,0,0Z" transform="translate(68.34 161.562) rotate(180)" fill="#263238" stroke="#263238" stroke-linecap="round" stroke-linejoin="round" stroke-width="2.5"/>
        <g id="Group_97" data-name="Group 97" transform="translate(33.748)">
          <path id="Path_308" data-name="Path 308" d="M1272.743,180.355l-20.484,17.454a9.793,9.793,0,0,0-3.439,7.334l-.2,16.6" transform="translate(-1248.621 -178.137)" fill="none" stroke="#263238" stroke-linecap="round" stroke-linejoin="round" stroke-width="2.5"/>
          <path id="Path_309" data-name="Path 309" d="M1276.775,179.828a2.41,2.41,0,1,0,2.41-2.41A2.409,2.409,0,0,0,1276.775,179.828Z" transform="translate(-1255.514 -177.418)" fill="#263238"/>
        </g>
      </g>
    </g>
  </g>
</svg>
