<svg xmlns="http://www.w3.org/2000/svg" width="26" height="26" viewBox="0 0 26 26">
  <path id="linkedin" d="M8.126,21.48H4.571V10H8.126ZM8.48,6.347A2.082,2.082,0,1,0,6.4,8.43,2.082,2.082,0,0,0,8.48,6.347Zm12.95,8.819c0-3.081-.651-5.366-4.25-5.366a3.689,3.689,0,0,0-3.364,1.764h0V10H10.36V21.48h3.453v-5.7c0-1.492.38-2.938,2.23-2.938,1.825,0,1.884,1.707,1.884,3.033v5.6h3.5ZM26,22.953V3.047A3.05,3.05,0,0,0,22.953,0H3.047A3.05,3.05,0,0,0,0,3.047V22.953A3.05,3.05,0,0,0,3.047,26H22.953A3.05,3.05,0,0,0,26,22.953ZM22.953,2.031a1.017,1.017,0,0,1,1.016,1.016V22.953a1.017,1.017,0,0,1-1.016,1.016H3.047a1.017,1.017,0,0,1-1.016-1.016V3.047A1.017,1.017,0,0,1,3.047,2.031Zm0,0" transform="translate(0)" fill="#e8f8ff"/>
</svg>
