<svg xmlns="http://www.w3.org/2000/svg" width="26" height="22" viewBox="0 0 26 22">
  <path id="mail" d="M24.984,52.629A1.017,1.017,0,0,0,26,51.611V44.074A4.073,4.073,0,0,0,21.938,40H4.063A4.073,4.073,0,0,0,0,44.074V57.926A4.073,4.073,0,0,0,4.063,62H21.938A4.073,4.073,0,0,0,26,57.926v-.2a1.02,1.02,0,0,0-.379-.793l-7.689-6.206,6.037-3.764v4.653A1.017,1.017,0,0,0,24.984,52.629ZM2.031,46.958l6.035,3.763L2.031,55.579ZM23.951,58.2a2.036,2.036,0,0,1-2.014,1.767H4.063a2.036,2.036,0,0,1-2.016-1.784l7.848-6.317.96.6a4.027,4.027,0,0,0,4.291,0l.959-.6Zm-9.878-7.465a2.014,2.014,0,0,1-2.145,0L2.06,44.577l-.028-.017v-.486a2.036,2.036,0,0,1,2.031-2.037H21.938a2.036,2.036,0,0,1,2.031,2.037v.485Z" transform="translate(0 -40)" fill="#e8f8ff"/>
</svg>
