<svg xmlns="http://www.w3.org/2000/svg" width="200" height="200" viewBox="0 0 200 200">
  <g id="webinar_img" transform="translate(-824 -430.026)">
    <g id="Ellipse_28" data-name="Ellipse 28" transform="translate(858 464.026)" fill="#fff" stroke="#d3d3d3" stroke-width="3" opacity="0.3">
      <circle cx="66" cy="66" r="66" stroke="none"/>
      <circle cx="66" cy="66" r="64.5" fill="none"/>
    </g>
    <g id="Ellipse_29" data-name="Ellipse 29" transform="translate(842 447.026)" fill="none" stroke="#d3d3d3" stroke-width="3" opacity="0.2">
      <circle cx="82.5" cy="82.5" r="82.5" stroke="none"/>
      <circle cx="82.5" cy="82.5" r="81" fill="none"/>
    </g>
    <g id="Ellipse_30" data-name="Ellipse 30" transform="translate(824 430.026)" fill="none" stroke="#d3d3d3" stroke-width="3" opacity="0.1">
      <circle cx="100" cy="100" r="100" stroke="none"/>
      <circle cx="100" cy="100" r="98.5" fill="none"/>
    </g>
    <g id="Group_88" data-name="Group 88" transform="translate(857.188 477.562)">
      <rect id="Rectangle_20" data-name="Rectangle 20" width="134.216" height="104.754" rx="9" transform="translate(0 0)" fill="#fff" stroke="#263238" stroke-linecap="round" stroke-linejoin="round" stroke-width="2.5"/>
      <g id="Group_83" data-name="Group 83" transform="translate(55.673 18.169)">
        <g id="Group_81" data-name="Group 81" transform="translate(0)">
          <g id="Group_80" data-name="Group 80" transform="translate(0)">
            <path id="Rectangle_19" data-name="Rectangle 19" d="M8.546,0h47.41A8.545,8.545,0,0,1,64.5,8.545v47.41A8.546,8.546,0,0,1,55.955,64.5H8.545A8.545,8.545,0,0,1,0,55.956V8.546A8.546,8.546,0,0,1,8.546,0Z" transform="translate(0 64.501) rotate(-90)" fill="#fff" stroke="#263238" stroke-linecap="round" stroke-linejoin="round" stroke-width="2.5"/>
          </g>
        </g>
        <g id="Group_82" data-name="Group 82" transform="translate(14.387 14.968)">
          <path id="Path_220" data-name="Path 220" d="M250.5,140.526A16.477,16.477,0,1,0,266.981,157H250.5Z" transform="translate(-234.026 -137.894)" fill="#01b35b" stroke="#263238" stroke-linecap="round" stroke-linejoin="round" stroke-width="2.5"/>
          <path id="Path_221" data-name="Path 221" d="M281.1,133.889v16.477h16.478A16.478,16.478,0,0,0,281.1,133.889Z" transform="translate(-262.428 -133.889)" fill="#01b35b" stroke="#263238" stroke-linecap="round" stroke-linejoin="round" stroke-width="2.5"/>
        </g>
      </g>
      <g id="Group_84" data-name="Group 84" transform="translate(18.209 59.67)">
        <line id="Line_2" data-name="Line 2" x2="26.213" transform="translate(0 0)" fill="none" stroke="#01b35b" stroke-linecap="round" stroke-linejoin="round" stroke-width="2.5"/>
        <line id="Line_3" data-name="Line 3" x2="26.213" transform="translate(0 4.841)" fill="none" stroke="#01b35b" stroke-linecap="round" stroke-linejoin="round" stroke-width="2.5"/>
        <line id="Line_4" data-name="Line 4" x2="26.213" transform="translate(0 9.682)" fill="none" stroke="#01b35b" stroke-linecap="round" stroke-linejoin="round" stroke-width="2.5"/>
        <line id="Line_5" data-name="Line 5" x2="26.213" transform="translate(0 15.1)" fill="none" stroke="#01b35b" stroke-linecap="round" stroke-linejoin="round" stroke-width="2.5"/>
      </g>
      <g id="Group_85" data-name="Group 85" transform="translate(12.366 58.189)">
        <rect id="Rectangle_21" data-name="Rectangle 21" width="1.809" height="1.809" rx="0.904" transform="translate(0 0)" fill="#01b35b" stroke="#263238" stroke-linecap="round" stroke-linejoin="round" stroke-width="2.5"/>
        <path id="Rectangle_22" data-name="Rectangle 22" d="M.9,0h0a.9.9,0,0,1,.9.9v0a.9.9,0,0,1-.9.9h0A.9.9,0,0,1,0,.9v0A.9.9,0,0,1,.9,0Z" transform="translate(0 5.13)" fill="#01b35b" stroke="#263238" stroke-linecap="round" stroke-linejoin="round" stroke-width="2.5"/>
        <path id="Rectangle_23" data-name="Rectangle 23" d="M.9,0h0a.9.9,0,0,1,.9.9v0a.9.9,0,0,1-.9.9h0A.9.9,0,0,1,0,.9v0A.9.9,0,0,1,.9,0Z" transform="translate(0 10.259)" fill="#01b35b" stroke="#263238" stroke-linecap="round" stroke-linejoin="round" stroke-width="2.5"/>
        <path id="Rectangle_24" data-name="Rectangle 24" d="M.9,0h0a.9.9,0,0,1,.9.9v0a.9.9,0,0,1-.9.9h0A.9.9,0,0,1,0,.9v0A.9.9,0,0,1,.9,0Z" transform="translate(0 15.389)" fill="#01b35b" stroke="#263238" stroke-linecap="round" stroke-linejoin="round" stroke-width="2.5"/>
      </g>
      <g id="Group_86" data-name="Group 86" transform="translate(18.209 79.684)">
        <line id="Line_6" data-name="Line 6" x2="26.213" transform="translate(0 0)" fill="none" stroke="#01b35b" stroke-linecap="round" stroke-linejoin="round" stroke-width="2.5"/>
        <line id="Line_7" data-name="Line 7" x2="26.213" transform="translate(0 4.841)" fill="none" stroke="#01b35b" stroke-linecap="round" stroke-linejoin="round" stroke-width="2.5"/>
        <line id="Line_8" data-name="Line 8" x2="26.213" transform="translate(0 9.682)" fill="none" stroke="#01b35b" stroke-linecap="round" stroke-linejoin="round" stroke-width="2.5"/>
        <line id="Line_9" data-name="Line 9" x2="26.213" transform="translate(0 15.1)" fill="none" stroke="#01b35b" stroke-linecap="round" stroke-linejoin="round" stroke-width="2.5"/>
      </g>
      <g id="Group_87" data-name="Group 87" transform="translate(12.366 78.202)">
        <rect id="Rectangle_25" data-name="Rectangle 25" width="1.809" height="1.809" rx="0.904" transform="translate(0)" fill="#01b35b" stroke="#263238" stroke-linecap="round" stroke-linejoin="round" stroke-width="2.5"/>
        <path id="Rectangle_26" data-name="Rectangle 26" d="M.9,0h0a.9.9,0,0,1,.9.9v0a.9.9,0,0,1-.9.9h0A.9.9,0,0,1,0,.9v0A.9.9,0,0,1,.9,0Z" transform="translate(0 5.13)" fill="#01b35b" stroke="#263238" stroke-linecap="round" stroke-linejoin="round" stroke-width="2.5"/>
        <path id="Rectangle_27" data-name="Rectangle 27" d="M.9,0h0a.9.9,0,0,1,.9.9v0a.9.9,0,0,1-.9.9h0A.9.9,0,0,1,0,.9v0A.9.9,0,0,1,.9,0Z" transform="translate(0 10.259)" fill="#01b35b" stroke="#263238" stroke-linecap="round" stroke-linejoin="round" stroke-width="2.5"/>
        <path id="Rectangle_28" data-name="Rectangle 28" d="M.9,0h0a.9.9,0,0,1,.9.9v0a.9.9,0,0,1-.9.9h0A.9.9,0,0,1,0,.9v0A.9.9,0,0,1,.9,0Z" transform="translate(0 15.389)" fill="#01b35b" stroke="#263238" stroke-linecap="round" stroke-linejoin="round" stroke-width="2.5"/>
      </g>
      <rect id="Rectangle_29" data-name="Rectangle 29" width="35.89" height="20.342" rx="8" transform="translate(10.78 14.067)" fill="#01b35b" stroke="#263238" stroke-linecap="round" stroke-linejoin="round" stroke-width="2.5"/>
      <rect id="Rectangle_30" data-name="Rectangle 30" width="35.89" height="7.985" rx="3.993" transform="translate(10.78 40.048)" fill="#1593c4" stroke="#263238" stroke-linecap="round" stroke-linejoin="round" stroke-width="2.5"/>
    </g>
  </g>
</svg>
